<svg xmlns="http://www.w3.org/2000/svg" xmlns:xlink="http://www.w3.org/1999/xlink" width="500" zoomAndPan="magnify" viewBox="0 0 375 374.999991" height="500" preserveAspectRatio="xMidYMid meet" version="1.0"><defs><g/><clipPath id="71b43a5e0b"><path d="M 98 47.578125 L 279.132812 47.578125 L 279.132812 244.785156 L 98 244.785156 Z M 98 47.578125 " clip-rule="nonzero"/></clipPath></defs><rect x="-37.5" width="450" fill="#ffffff" y="-37.499999" height="449.999989" fill-opacity="1"/><rect x="-37.5" width="450" fill="#ffffff" y="-37.499999" height="449.999989" fill-opacity="1"/><rect x="-37.5" width="450" fill="#192e5b" y="-37.499999" height="449.999989" fill-opacity="1"/><g fill="#ffffff" fill-opacity="1"><g transform="translate(57.698208, 297.134837)"><g><path d="M 15.78125 0 L 14.703125 -4.09375 L 7.59375 -4.09375 L 6.5 0 L 0 0 L 7.140625 -21.96875 L 15.015625 -21.96875 L 22.25 0 Z M 13.484375 -8.953125 L 12.53125 -12.53125 C 12.3125 -13.332031 12.046875 -14.363281 11.734375 -15.625 C 11.421875 -16.894531 11.210938 -17.804688 11.109375 -18.359375 C 11.023438 -17.847656 10.847656 -17.007812 10.578125 -15.84375 C 10.316406 -14.675781 9.734375 -12.378906 8.828125 -8.953125 Z M 13.484375 -8.953125 "/></g></g></g><g fill="#ffffff" fill-opacity="1"><g transform="translate(86.064052, 297.134837)"><g><path d="M 2.359375 0 L 2.359375 -21.875 L 8.296875 -21.875 L 8.296875 0 Z M 2.359375 0 "/></g></g></g><g fill="#ffffff" fill-opacity="1"><g transform="translate(102.855231, 297.134837)"><g><path d="M 8.28125 -7.953125 L 8.28125 0 L 2.359375 0 L 2.359375 -21.875 L 9.53125 -21.875 C 15.476562 -21.875 18.453125 -19.71875 18.453125 -15.40625 C 18.453125 -12.875 17.210938 -10.914062 14.734375 -9.53125 L 21.109375 0 L 14.40625 0 L 9.765625 -7.953125 Z M 8.28125 -12.40625 L 9.375 -12.40625 C 11.445312 -12.40625 12.484375 -13.316406 12.484375 -15.140625 C 12.484375 -16.648438 11.46875 -17.40625 9.4375 -17.40625 L 8.28125 -17.40625 Z M 8.28125 -12.40625 "/></g></g></g><g fill="#ffffff" fill-opacity="1"><g transform="translate(129.71069, 297.134837)"><g/></g></g><g fill="#ffffff" fill-opacity="1"><g transform="translate(143.795128, 297.134837)"><g><path d="M 22.828125 -10.96875 C 22.828125 -6.007812 21.253906 -2.664062 18.109375 -0.9375 L 23.4375 5.203125 L 16.078125 5.203125 L 12.21875 0.34375 L 12.203125 0.328125 L 12.203125 0.3125 L 12.1875 0.296875 C 8.757812 0.296875 6.128906 -0.660156 4.296875 -2.578125 C 2.472656 -4.503906 1.5625 -7.3125 1.5625 -11 C 1.5625 -14.632812 2.46875 -17.410156 4.28125 -19.328125 C 6.101562 -21.253906 8.75 -22.21875 12.21875 -22.21875 C 15.695312 -22.21875 18.332031 -21.265625 20.125 -19.359375 C 21.925781 -17.453125 22.828125 -14.65625 22.828125 -10.96875 Z M 7.78125 -10.96875 C 7.78125 -6.738281 9.25 -4.625 12.1875 -4.625 C 13.6875 -4.625 14.796875 -5.132812 15.515625 -6.15625 C 16.242188 -7.1875 16.609375 -8.789062 16.609375 -10.96875 C 16.609375 -13.15625 16.238281 -14.769531 15.5 -15.8125 C 14.769531 -16.851562 13.675781 -17.375 12.21875 -17.375 C 9.257812 -17.375 7.78125 -15.238281 7.78125 -10.96875 Z M 7.78125 -10.96875 "/></g></g></g><g fill="#ffffff" fill-opacity="1"><g transform="translate(174.32935, 297.134837)"><g><path d="M 20.953125 -21.875 L 20.953125 -8.703125 C 20.953125 -5.835938 20.140625 -3.617188 18.515625 -2.046875 C 16.898438 -0.484375 14.566406 0.296875 11.515625 0.296875 C 8.535156 0.296875 6.242188 -0.460938 4.640625 -1.984375 C 3.046875 -3.515625 2.25 -5.710938 2.25 -8.578125 L 2.25 -21.875 L 8.1875 -21.875 L 8.1875 -9.03125 C 8.1875 -7.488281 8.472656 -6.367188 9.046875 -5.671875 C 9.628906 -4.972656 10.484375 -4.625 11.609375 -4.625 C 12.816406 -4.625 13.691406 -4.96875 14.234375 -5.65625 C 14.773438 -6.351562 15.046875 -7.488281 15.046875 -9.0625 L 15.046875 -21.875 Z M 20.953125 -21.875 "/></g></g></g><g fill="#ffffff" fill-opacity="1"><g transform="translate(203.637315, 297.134837)"><g><path d="M 15.78125 0 L 14.703125 -4.09375 L 7.59375 -4.09375 L 6.5 0 L 0 0 L 7.140625 -21.96875 L 15.015625 -21.96875 L 22.25 0 Z M 13.484375 -8.953125 L 12.53125 -12.53125 C 12.3125 -13.332031 12.046875 -14.363281 11.734375 -15.625 C 11.421875 -16.894531 11.210938 -17.804688 11.109375 -18.359375 C 11.023438 -17.847656 10.847656 -17.007812 10.578125 -15.84375 C 10.316406 -14.675781 9.734375 -12.378906 8.828125 -8.953125 Z M 13.484375 -8.953125 "/></g></g></g><g fill="#ffffff" fill-opacity="1"><g transform="translate(232.003157, 297.134837)"><g><path d="M 2.359375 0 L 2.359375 -21.875 L 8.28125 -21.875 L 8.28125 -4.765625 L 16.703125 -4.765625 L 16.703125 0 Z M 2.359375 0 "/></g></g></g><g fill="#ffffff" fill-opacity="1"><g transform="translate(255.957465, 297.134837)"><g><path d="M 2.359375 0 L 2.359375 -21.875 L 8.296875 -21.875 L 8.296875 0 Z M 2.359375 0 "/></g></g></g><g fill="#ffffff" fill-opacity="1"><g transform="translate(272.748653, 297.134837)"><g><path d="M 12.015625 0 L 6.109375 0 L 6.109375 -17.046875 L 0.765625 -17.046875 L 0.765625 -21.875 L 17.34375 -21.875 L 17.34375 -17.046875 L 12.015625 -17.046875 Z M 12.015625 0 "/></g></g></g><g fill="#ffffff" fill-opacity="1"><g transform="translate(296.97214, 297.134837)"><g><path d="M 10.171875 -13.765625 L 13.9375 -21.875 L 20.34375 -21.875 L 13.15625 -8.546875 L 13.15625 0 L 7.203125 0 L 7.203125 -8.359375 L 0 -21.875 L 6.4375 -21.875 Z M 10.171875 -13.765625 "/></g></g></g><g fill="#ffffff" fill-opacity="1"><g transform="translate(126.304703, 324.013141)"><g><path d="M 7.859375 -2.984375 C 7.859375 -1.992188 7.5 -1.222656 6.78125 -0.671875 C 6.070312 -0.117188 5.101562 0.15625 3.875 0.15625 C 2.550781 0.15625 1.53125 -0.015625 0.8125 -0.359375 L 0.8125 -1.609375 C 1.269531 -1.421875 1.769531 -1.269531 2.3125 -1.15625 C 2.851562 -1.039062 3.390625 -0.984375 3.921875 -0.984375 C 4.785156 -0.984375 5.4375 -1.144531 5.875 -1.46875 C 6.320312 -1.800781 6.546875 -2.265625 6.546875 -2.859375 C 6.546875 -3.242188 6.46875 -3.5625 6.3125 -3.8125 C 6.15625 -4.0625 5.894531 -4.289062 5.53125 -4.5 C 5.164062 -4.707031 4.609375 -4.941406 3.859375 -5.203125 C 2.816406 -5.578125 2.070312 -6.019531 1.625 -6.53125 C 1.175781 -7.039062 0.953125 -7.707031 0.953125 -8.53125 C 0.953125 -9.394531 1.273438 -10.082031 1.921875 -10.59375 C 2.578125 -11.101562 3.4375 -11.359375 4.5 -11.359375 C 5.613281 -11.359375 6.640625 -11.15625 7.578125 -10.75 L 7.171875 -9.609375 C 6.242188 -10.003906 5.34375 -10.203125 4.46875 -10.203125 C 3.78125 -10.203125 3.242188 -10.050781 2.859375 -9.75 C 2.472656 -9.457031 2.28125 -9.046875 2.28125 -8.515625 C 2.28125 -8.128906 2.347656 -7.8125 2.484375 -7.5625 C 2.628906 -7.3125 2.867188 -7.082031 3.203125 -6.875 C 3.546875 -6.675781 4.066406 -6.453125 4.765625 -6.203125 C 5.941406 -5.773438 6.75 -5.320312 7.1875 -4.84375 C 7.632812 -4.363281 7.859375 -3.742188 7.859375 -2.984375 Z M 7.859375 -2.984375 "/></g></g></g><g fill="#ffffff" fill-opacity="1"><g transform="translate(147.455642, 324.013141)"><g><path d="M 7.78125 0 L 1.546875 0 L 1.546875 -11.203125 L 7.78125 -11.203125 L 7.78125 -10.046875 L 2.84375 -10.046875 L 2.84375 -6.4375 L 7.484375 -6.4375 L 7.484375 -5.28125 L 2.84375 -5.28125 L 2.84375 -1.171875 L 7.78125 -1.171875 Z M 7.78125 0 "/></g></g></g><g fill="#ffffff" fill-opacity="1"><g transform="translate(168.721405, 324.013141)"><g><path d="M 10.28125 0 L 8.796875 0 L 2.6875 -9.40625 L 2.625 -9.40625 C 2.707031 -8.300781 2.75 -7.285156 2.75 -6.359375 L 2.75 0 L 1.546875 0 L 1.546875 -11.203125 L 3.015625 -11.203125 L 9.109375 -1.84375 L 9.171875 -1.84375 C 9.160156 -1.976562 9.132812 -2.421875 9.09375 -3.171875 C 9.0625 -3.921875 9.050781 -4.453125 9.0625 -4.765625 L 9.0625 -11.203125 L 10.28125 -11.203125 Z M 10.28125 0 "/></g></g></g><g fill="#ffffff" fill-opacity="1"><g transform="translate(193.087214, 324.013141)"><g><path d="M 7.859375 -2.984375 C 7.859375 -1.992188 7.5 -1.222656 6.78125 -0.671875 C 6.070312 -0.117188 5.101562 0.15625 3.875 0.15625 C 2.550781 0.15625 1.53125 -0.015625 0.8125 -0.359375 L 0.8125 -1.609375 C 1.269531 -1.421875 1.769531 -1.269531 2.3125 -1.15625 C 2.851562 -1.039062 3.390625 -0.984375 3.921875 -0.984375 C 4.785156 -0.984375 5.4375 -1.144531 5.875 -1.46875 C 6.320312 -1.800781 6.546875 -2.265625 6.546875 -2.859375 C 6.546875 -3.242188 6.46875 -3.5625 6.3125 -3.8125 C 6.15625 -4.0625 5.894531 -4.289062 5.53125 -4.5 C 5.164062 -4.707031 4.609375 -4.941406 3.859375 -5.203125 C 2.816406 -5.578125 2.070312 -6.019531 1.625 -6.53125 C 1.175781 -7.039062 0.953125 -7.707031 0.953125 -8.53125 C 0.953125 -9.394531 1.273438 -10.082031 1.921875 -10.59375 C 2.578125 -11.101562 3.4375 -11.359375 4.5 -11.359375 C 5.613281 -11.359375 6.640625 -11.15625 7.578125 -10.75 L 7.171875 -9.609375 C 6.242188 -10.003906 5.34375 -10.203125 4.46875 -10.203125 C 3.78125 -10.203125 3.242188 -10.050781 2.859375 -9.75 C 2.472656 -9.457031 2.28125 -9.046875 2.28125 -8.515625 C 2.28125 -8.128906 2.347656 -7.8125 2.484375 -7.5625 C 2.628906 -7.3125 2.867188 -7.082031 3.203125 -6.875 C 3.546875 -6.675781 4.066406 -6.453125 4.765625 -6.203125 C 5.941406 -5.773438 6.75 -5.320312 7.1875 -4.84375 C 7.632812 -4.363281 7.859375 -3.742188 7.859375 -2.984375 Z M 7.859375 -2.984375 "/></g></g></g><g fill="#ffffff" fill-opacity="1"><g transform="translate(214.238152, 324.013141)"><g><path d="M 11.265625 -5.609375 C 11.265625 -3.816406 10.8125 -2.40625 9.90625 -1.375 C 9 -0.351562 7.738281 0.15625 6.125 0.15625 C 4.46875 0.15625 3.191406 -0.347656 2.296875 -1.359375 C 1.398438 -2.367188 0.953125 -3.789062 0.953125 -5.625 C 0.953125 -7.445312 1.398438 -8.859375 2.296875 -9.859375 C 3.203125 -10.867188 4.484375 -11.375 6.140625 -11.375 C 7.742188 -11.375 9 -10.863281 9.90625 -9.84375 C 10.8125 -8.820312 11.265625 -7.410156 11.265625 -5.609375 Z M 2.34375 -5.609375 C 2.34375 -4.097656 2.664062 -2.945312 3.3125 -2.15625 C 3.957031 -1.375 4.894531 -0.984375 6.125 -0.984375 C 7.363281 -0.984375 8.296875 -1.375 8.921875 -2.15625 C 9.554688 -2.9375 9.875 -4.085938 9.875 -5.609375 C 9.875 -7.117188 9.554688 -8.257812 8.921875 -9.03125 C 8.296875 -9.8125 7.367188 -10.203125 6.140625 -10.203125 C 4.898438 -10.203125 3.957031 -9.8125 3.3125 -9.03125 C 2.664062 -8.25 2.34375 -7.109375 2.34375 -5.609375 Z M 2.34375 -5.609375 "/></g></g></g><g fill="#ffffff" fill-opacity="1"><g transform="translate(238.994342, 324.013141)"><g><path d="M 2.84375 -4.65625 L 2.84375 0 L 1.546875 0 L 1.546875 -11.203125 L 4.609375 -11.203125 C 5.984375 -11.203125 7 -10.9375 7.65625 -10.40625 C 8.3125 -9.882812 8.640625 -9.09375 8.640625 -8.03125 C 8.640625 -6.550781 7.890625 -5.550781 6.390625 -5.03125 L 9.421875 0 L 7.890625 0 L 5.171875 -4.65625 Z M 2.84375 -5.78125 L 4.625 -5.78125 C 5.539062 -5.78125 6.210938 -5.960938 6.640625 -6.328125 C 7.078125 -6.691406 7.296875 -7.238281 7.296875 -7.96875 C 7.296875 -8.707031 7.078125 -9.238281 6.640625 -9.5625 C 6.203125 -9.894531 5.5 -10.0625 4.53125 -10.0625 L 2.84375 -10.0625 Z M 2.84375 -5.78125 "/></g></g></g><path fill="#f2a104" d="M 165.226562 136.132812 L 162.835938 134.265625 L 157.769531 130.296875 L 137.195312 146.429688 L 137.195312 193.222656 C 137.984375 194.148438 138.792969 195.074219 139.617188 195.984375 C 147.566406 203.890625 155.714844 210.28125 164.03125 215.128906 L 164.03125 138.304688 L 166.421875 140.171875 L 166.421875 216.488281 C 167.363281 217.011719 168.308594 217.515625 169.25 217.988281 L 169.25 142.121094 L 171.640625 143.988281 L 171.640625 219.148438 C 172.585938 219.601562 173.527344 220.023438 174.472656 220.410156 L 174.472656 145.921875 L 176.863281 147.789062 L 176.863281 221.382812 C 177.367188 221.585938 177.855469 221.769531 178.359375 221.957031 L 178.359375 146.429688 Z M 212.65625 109.25 L 210.265625 107.386719 L 205.199219 103.414062 L 184.625 119.546875 L 184.625 223.972656 C 191.207031 225.808594 197.875 226.734375 204.625 226.734375 C 206.949219 226.734375 209.222656 226.617188 211.460938 226.414062 L 211.460938 111.421875 L 213.851562 113.289062 L 213.851562 226.144531 C 214.8125 226.042969 215.757812 225.910156 216.679688 225.757812 L 216.679688 115.222656 L 219.074219 117.089844 L 219.074219 225.339844 C 220.015625 225.152344 220.957031 224.949219 221.902344 224.730469 L 221.902344 119.042969 L 224.292969 120.910156 L 224.292969 224.160156 C 224.796875 224.023438 225.285156 223.890625 225.773438 223.773438 L 225.773438 119.546875 Z M 260.070312 82.371094 L 257.699219 80.488281 L 252.628906 76.519531 L 232.035156 92.648438 L 232.035156 221.753906 C 241.988281 218.1875 250.492188 213.242188 256.957031 208.769531 L 258.117188 207.945312 L 258.875 207.390625 L 258.875 84.523438 L 261.265625 86.394531 L 261.265625 205.625 C 261.535156 205.4375 261.789062 205.234375 262.042969 205.035156 L 263.117188 204.210938 L 263.117188 204.195312 L 264.113281 203.402344 L 264.113281 88.34375 L 266.488281 90.210938 L 266.488281 201.46875 C 266.722656 201.265625 266.941406 201.082031 267.160156 200.894531 L 268.339844 199.886719 L 268.339844 199.867188 L 269.332031 198.980469 L 269.332031 92.144531 L 271.707031 94.011719 L 271.707031 196.773438 L 273.203125 195.394531 L 273.203125 92.648438 L 260.070312 82.371094 " fill-opacity="1" fill-rule="nonzero"/><g clip-path="url(#71b43a5e0b)"><path fill="#3bab5a" d="M 279.082031 194.066406 C 277.3125 197.363281 275.359375 200.59375 273.203125 203.652344 C 272.714844 204.359375 272.226562 205.050781 271.707031 205.738281 C 270.949219 206.800781 270.140625 207.824219 269.332031 208.851562 C 268.40625 209.996094 267.460938 211.125 266.488281 212.214844 C 265.710938 213.109375 264.921875 213.984375 264.113281 214.839844 C 263.1875 215.816406 262.226562 216.773438 261.265625 217.71875 C 260.492188 218.472656 259.683594 219.230469 258.875 219.953125 C 256.871094 221.789062 254.785156 223.519531 252.628906 225.167969 C 249.617188 227.472656 246.449219 229.59375 243.167969 231.527344 C 243.148438 231.5625 243.132812 231.5625 243.117188 231.5625 L 232.035156 237.0625 L 231.128906 237.515625 C 229.375 238.238281 227.59375 238.914062 225.773438 239.535156 C 225.285156 239.71875 224.78125 239.871094 224.292969 240.039062 C 223.5 240.292969 222.710938 240.542969 221.902344 240.777344 C 220.957031 241.066406 220.015625 241.335938 219.074219 241.585938 C 218.28125 241.789062 217.472656 241.992188 216.679688 242.175781 C 215.738281 242.394531 214.796875 242.613281 213.851562 242.796875 C 213.0625 242.964844 212.253906 243.117188 211.460938 243.269531 C 209.828125 243.554688 208.195312 243.808594 206.527344 244.027344 C 206.089844 244.078125 205.636719 244.128906 205.199219 244.175781 C 201.578125 244.582031 197.976562 244.78125 194.40625 244.78125 C 191.105469 244.78125 187.839844 244.613281 184.625 244.277344 C 182.519531 244.058594 180.429688 243.789062 178.359375 243.421875 C 177.855469 243.351562 177.367188 243.253906 176.863281 243.167969 C 176.070312 243.015625 175.261719 242.867188 174.472656 242.679688 C 173.527344 242.476562 172.585938 242.257812 171.640625 242.042969 C 170.851562 241.839844 170.042969 241.636719 169.25 241.417969 C 168.308594 241.167969 167.363281 240.878906 166.421875 240.59375 C 165.632812 240.34375 164.824219 240.089844 164.03125 239.820312 C 161.945312 239.132812 159.890625 238.359375 157.867188 237.515625 C 157.835938 237.5 157.800781 237.484375 157.769531 237.484375 C 151 234.671875 144.617188 231.109375 138.691406 226.851562 C 138.1875 226.480469 137.679688 226.128906 137.195312 225.742188 C 117.054688 210.738281 102.8125 187.894531 99.394531 161.011719 C 96.160156 135.445312 103.316406 110.933594 117.628906 91.773438 C 141.757812 55.742188 179.554688 47.535156 208.988281 47.535156 C 232.1875 47.535156 250.1875 52.648438 252.207031 53.238281 C 251.621094 53.101562 249.714844 52.714844 246.769531 52.714844 C 236.75 52.714844 214.710938 57.191406 191.710938 91.203125 C 176.777344 113.273438 157.851562 119.144531 142.125 119.144531 C 134.648438 119.144531 127.898438 117.816406 122.628906 116.285156 C 138.269531 77.59375 188.5625 62.035156 188.5625 62.035156 C 163.710938 64.945312 141.976562 79.191406 126.183594 98.101562 C 120.726562 104.644531 116.046875 110.984375 114.210938 119.460938 C 112.242188 128.511719 112.324219 137.898438 113.484375 147.035156 C 116.011719 166.914062 124.597656 184.5625 137.195312 198.304688 C 138.675781 199.785156 140.171875 201.214844 141.65625 202.578125 C 142.800781 203.621094 143.925781 204.628906 145.074219 205.589844 C 147.953125 208.09375 150.796875 210.332031 153.625 212.367188 C 154.789062 213.207031 155.933594 214.015625 157.09375 214.773438 C 159.28125 216.238281 161.457031 217.566406 163.609375 218.792969 C 164.804688 219.46875 166 220.105469 167.179688 220.710938 C 167.667969 220.964844 168.140625 221.214844 168.609375 221.433594 C 169.808594 222.023438 171.003906 222.578125 172.179688 223.101562 C 173.59375 223.722656 175.007812 224.292969 176.40625 224.832031 C 186.222656 228.550781 195.6875 230.097656 204.625 230.097656 C 209.457031 230.097656 214.140625 229.644531 218.636719 228.851562 C 220.570312 228.515625 222.457031 228.113281 224.324219 227.640625 C 225.554688 227.339844 226.785156 227.003906 227.996094 226.648438 C 228.601562 226.464844 229.207031 226.277344 229.796875 226.09375 C 230.992188 225.707031 232.171875 225.320312 233.332031 224.898438 C 233.921875 224.699219 234.496094 224.480469 235.066406 224.261719 C 236.214844 223.824219 237.339844 223.367188 238.433594 222.898438 C 242.863281 221.015625 247.023438 218.878906 250.84375 216.65625 C 251.785156 216.085938 252.730469 215.53125 253.640625 214.957031 C 254.566406 214.386719 255.457031 213.8125 256.316406 213.242188 C 257.191406 212.671875 258.050781 212.097656 258.875 211.527344 C 259.699219 210.953125 260.492188 210.398438 261.265625 209.828125 C 262.261719 209.105469 263.203125 208.398438 264.113281 207.691406 L 266.488281 205.808594 C 267.496094 205 268.441406 204.210938 269.332031 203.453125 L 271.707031 201.367188 C 272.226562 200.894531 272.734375 200.425781 273.203125 199.988281 C 273.203125 199.988281 277.109375 196.472656 278.894531 194.269531 C 278.980469 194.167969 279.046875 194.097656 279.082031 194.066406 " fill-opacity="1" fill-rule="nonzero"/></g></svg>